<?xml version="1.0" encoding="UTF-8"?>
<svg id="Calque_1" data-name="Calque 1" xmlns="http://www.w3.org/2000/svg" viewBox="0 0 400 400">
  <defs>
    <style>
      .cls-1 {
        fill: #0c0056;
      }
    </style>
  </defs>
  <path class="cls-1" d="M136.27,104.35c-2.52,10.42-4.96,21.01-7.31,31.75-5.55,23.19-10.8,45.62-15.75,67.29-4.96,21.68-10.29,45.28-16,70.83h-.25c5.21-36.96,12-93.59,20.42-169.86h-10.58l-19.91,191.54h12.35l47.88-191.54h-10.84,0Z"/>
  <polygon class="cls-1" points="150.64 104.35 116.86 295.89 127.45 295.89 161.22 104.35 150.64 104.35"/>
  <path class="cls-1" d="M162.23,269.18c-1,6.05-2.31,10.62-3.91,13.73-1.61,3.12-3.57,4.66-5.91,4.66-3.02,0-4.63-1.85-4.79-5.54-.17-3.69.25-8.15,1.26-13.35v-.51l23.94-136.34c1.18-6.54,2.56-11.43,4.16-14.61,1.59-3.18,3.57-4.79,5.91-4.79,2.52,0,4.03,1.73,4.54,5.17.5,3.44.16,8.28-1,14.49l-8.82,49.39h10.58l7.31-41.84c1.85-9.58,2.56-17.09,2.14-22.56-.41-5.46-1.73-9.27-3.91-11.47s-5.21-3.28-9.07-3.28c-4.54,0-8.32,1.55-11.35,4.66-3.02,3.1-5.46,7.19-7.31,12.23-1.85,5.03-3.53,11.59-5.04,19.66l-.25.75-21.68,123.75c-2.18,12.43-2.3,21.26-.37,26.47,1.93,5.21,5.83,7.81,11.72,7.81s10.92-2.69,14.61-8.07,6.64-14.12,8.82-26.21l8.07-46.12h-10.58l-9.07,51.92v.03Z"/>
  <polygon class="cls-1" points="238.85 115.19 240.61 104.35 227.26 104.35 216.67 104.35 203.31 104.35 201.55 115.19 214.76 115.19 182.9 295.89 193.48 295.89 225.35 115.19 238.85 115.19"/>
  <path class="cls-1" d="M270.35,139.64c1.67-9.41,2.4-16.79,2.14-22.17-.25-5.38-1.43-9.23-3.53-11.59-2.1-2.36-5.17-3.53-9.19-3.53-4.38,0-8.07,1.3-11.09,3.91s-5.55,6.6-7.56,11.96c-2.02,5.38-3.87,12.52-5.55,21.42l-21.68,123.75c-2.02,11.76-2.22,20.42-.63,25.96,1.61,5.55,5.58,8.32,11.96,8.32,6.05,0,10.92-2.6,14.61-7.81,3.69-5.21,6.64-14.02,8.82-26.47l21.68-123.75h.03ZM237.33,269.18c-1.18,6.22-2.56,10.84-4.16,13.86s-3.65,4.54-6.18,4.54c-2.36,0-3.87-1.51-4.54-4.54s-.41-7.64.76-13.86l24.19-137.36c1.02-6.38,2.4-11.21,4.16-14.49s3.81-4.91,6.17-4.91c2.52,0,4.03,1.77,4.54,5.29.5,3.53.25,8.23-.76,14.12l-24.19,137.36h.01Z"/>
  <path class="cls-1" d="M312.94,117.08c-.51-4.95-1.77-8.31-3.79-10.08-2.02-1.77-5.04-2.65-9.07-2.65h-17.64l-33.77,191.54h10.58l15.37-87.19c.33-2.02.71-3.49,1.12-4.42s1.14-1.39,2.14-1.39h6.05c2.02,0,3.18.92,3.53,2.77.33,1.85.16,4.71-.51,8.56l-10.33,59.48c-1.35,7.56-2.18,12.69-2.52,15.37s-.51,4.62-.51,5.79v1h10.33l.51-2.27c-.33-.67-.41-1.59-.25-2.77s.5-3.44,1-6.81l11.84-67.04c1.18-6.05,1.22-10.66.13-13.86-1.1-3.18-2.73-4.95-4.92-5.29v-.25c2.69-.84,5.17-3.45,7.44-7.81s4.16-10.66,5.67-18.89l6.05-33.01c1.51-8.9,2.02-15.83,1.51-20.79h.01ZM301.59,132.08v.5l-8.07,46.38c-.84,4.54-1.98,7.93-3.4,10.21-1.43,2.27-2.9,3.4-4.4,3.4h-8.32l13.86-77.37h6.05c3.02,0,4.71,1.69,5.04,5.04.33,3.36.08,7.31-.76,11.84h0Z"/>
</svg>